<svg xmlns="http://www.w3.org/2000/svg" viewBox="0 0 746 387">
  <title>mountains2</title>
  <g id="Layer_1" data-name="Layer 1" opacity="0.75">
    <g>
      <path d="M723.62,787.8909v-7.0363H708.7V766.7818h14.92V752.709H708.7V731.6h-7.46v21.109H686.32v14.0728H663.94v14.0728H649.02V766.7818h14.92V752.709H641.56v14.0728h-37.3V752.709H589.34v14.0728H574.42V752.709h-7.46V731.6H552.04V717.5273h-7.46V703.4545H514.74v14.0728h14.92V752.709h14.92v14.0728H529.66v14.0728H514.74V766.7818H492.36v14.0728h14.92v14.0726h-37.3V766.7818H455.06v14.0728h-37.3V766.7818H410.3V752.709h7.46V731.6h14.92v35.1818h22.38V731.6H447.6V717.5273H432.68V703.4545H447.6V689.3818H432.68V661.2363H417.76v28.1455H395.38v14.0727H410.3V731.6H387.92V717.5273H373V731.6H358.08V717.5273h-7.46V731.6H335.7V717.5273H298.4V703.4545h-7.46V675.3091h7.46V661.2363h29.84V633.0909H298.4v14.0727h-7.46v14.0727H268.56V647.1636H216.34v14.0727h22.38v14.0728h14.92v14.0727h22.38v28.1455h14.92V731.6H276.02v21.109H298.4V731.6h29.84v21.109h22.38v14.0728H328.24V752.709H298.4v28.1456h-7.46V766.7818h-37.3V752.709H231.26V731.6H201.42v21.109h-7.46V731.6h7.46V703.4545h-7.46V689.3818H179.04V731.6h-7.46V717.5273H141.74V731.6h14.92v21.109h22.38v14.0728h14.92v14.0728h7.46v14.0726H156.66V780.8546H134.28V766.7818H119.36V752.709H111.9V717.5273h7.46V703.4545H111.9V689.3818H96.98V675.3091H74.6V661.2363H59.68V647.1636H74.6V633.0909h7.46V619.0182H59.68v14.0727H44.76v14.0727H37.3v28.1455H22.38V661.2363H14.92v28.1455H0V809H82.06V794.9272h37.3V809H731.08V794.9272h-7.46Zm-179.04,0v-7.0363h7.46v14.0726h-7.46ZM365.54,766.7818h22.38V752.709h7.46v14.0728h-7.46v14.0728H358.08V766.7818ZM74.6,724.5636v-7.0363h7.46V731.6H74.6Zm-7.46,56.291H37.3V766.7818h7.46V752.709H22.38V717.5273H44.76V731.6H59.68v21.109H74.6v14.0728h7.46v14.0728H67.14Z" transform="translate(0 -422)" fill="#082340"/>
      <polygon points="731.08 358.855 731.08 365.891 731.08 372.927 738.54 372.927 746 372.927 746 365.891 746 358.855 738.54 358.855 731.08 358.855" fill="#082340"/>
      <polygon points="723.62 358.855 731.08 358.855 731.08 351.818 731.08 344.782 723.62 344.782 723.62 351.818 723.62 358.855" fill="#082340"/>
      <polygon points="663.94 323.673 663.94 330.709 671.4 330.709 678.86 330.709 686.32 330.709 686.32 323.673 686.32 316.636 686.32 309.6 678.86 309.6 671.4 309.6 663.94 309.6 663.94 316.636 663.94 323.673" fill="#082340"/>
      <polygon points="641.56 316.636 641.56 309.6 634.1 309.6 626.64 309.6 626.64 316.636 626.64 323.673 626.64 330.709 634.1 330.709 641.56 330.709 641.56 323.673 641.56 316.636" fill="#082340"/>
      <polygon points="484.9 323.673 484.9 330.709 492.36 330.709 499.82 330.709 507.28 330.709 514.74 330.709 514.74 323.673 514.74 316.636 514.74 309.6 507.28 309.6 499.82 309.6 492.36 309.6 484.9 309.6 484.9 316.636 484.9 323.673" fill="#082340"/>
      <polygon points="738.54 309.6 731.08 309.6 731.08 316.636 731.08 323.673 731.08 330.709 738.54 330.709 746 330.709 746 323.673 746 316.636 746 309.6 738.54 309.6" fill="#082340"/>
      <polygon points="246.18 309.6 253.64 309.6 261.1 309.6 268.56 309.6 276.02 309.6 276.02 302.564 276.02 295.527 268.56 295.527 261.1 295.527 253.64 295.527 246.18 295.527 238.72 295.527 231.26 295.527 231.26 302.564 231.26 309.6 238.72 309.6 246.18 309.6" fill="#082340"/>
      <polygon points="626.64 295.527 634.1 295.527 641.56 295.527 649.02 295.527 649.02 302.564 649.02 309.6 656.48 309.6 663.94 309.6 663.94 302.564 663.94 295.527 663.94 288.491 663.94 281.455 656.48 281.455 649.02 281.455 649.02 274.418 649.02 267.382 641.56 267.382 641.56 274.418 641.56 281.455 634.1 281.455 626.64 281.455 619.18 281.455 611.72 281.455 611.72 274.418 611.72 267.382 604.26 267.382 604.26 260.345 604.26 253.309 596.8 253.309 589.34 253.309 581.88 253.309 574.42 253.309 574.42 260.345 574.42 267.382 581.88 267.382 589.34 267.382 589.34 274.418 589.34 281.455 589.34 288.491 589.34 295.527 596.8 295.527 604.26 295.527 611.72 295.527 611.72 302.564 611.72 309.6 619.18 309.6 626.64 309.6 626.64 302.564 626.64 295.527" fill="#082340"/>
      <polygon points="686.32 295.527 686.32 288.491 686.32 281.455 678.86 281.455 671.4 281.455 671.4 288.491 671.4 295.527 678.86 295.527 686.32 295.527" fill="#082340"/>
      <polygon points="447.6 295.527 455.06 295.527 455.06 302.564 455.06 309.6 462.52 309.6 469.98 309.6 477.44 309.6 484.9 309.6 484.9 302.564 484.9 295.527 477.44 295.527 469.98 295.527 469.98 288.491 469.98 281.455 469.98 274.418 469.98 267.382 462.52 267.382 455.06 267.382 455.06 274.418 455.06 281.455 447.6 281.455 447.6 288.491 447.6 295.527" fill="#082340"/>
      <polygon points="395.38 288.491 395.38 281.455 387.92 281.455 387.92 288.491 387.92 295.527 395.38 295.527 395.38 288.491" fill="#082340"/>
      <polygon points="350.62 295.527 350.62 288.491 350.62 281.455 343.16 281.455 335.7 281.455 335.7 288.491 335.7 295.527 343.16 295.527 350.62 295.527" fill="#082340"/>
      <polygon points="492.36 281.455 492.36 288.491 492.36 295.527 499.82 295.527 507.28 295.527 507.28 288.491 507.28 281.455 499.82 281.455 492.36 281.455" fill="#082340"/>
      <polygon points="216.34 281.455 216.34 274.418 216.34 267.382 208.88 267.382 201.42 267.382 201.42 274.418 201.42 281.455 208.88 281.455 216.34 281.455" fill="#082340"/>
      <polygon points="566.96 274.418 566.96 281.455 574.42 281.455 574.42 274.418 574.42 267.382 566.96 267.382 566.96 274.418" fill="#082340"/>
      <polygon points="701.24 267.382 701.24 260.345 701.24 253.309 693.78 253.309 686.32 253.309 686.32 260.345 686.32 267.382 693.78 267.382 701.24 267.382" fill="#082340"/>
      <polygon points="626.64 267.382 626.64 260.345 626.64 253.309 619.18 253.309 611.72 253.309 611.72 260.345 611.72 267.382 619.18 267.382 626.64 267.382" fill="#082340"/>
      <polygon points="537.12 253.309 529.66 253.309 522.2 253.309 514.74 253.309 514.74 260.345 514.74 267.382 522.2 267.382 529.66 267.382 537.12 267.382 544.58 267.382 552.04 267.382 552.04 260.345 552.04 253.309 544.58 253.309 537.12 253.309" fill="#082340"/>
      <polygon points="492.36 260.345 492.36 267.382 499.82 267.382 507.28 267.382 507.28 260.345 507.28 253.309 499.82 253.309 492.36 253.309 492.36 260.345" fill="#082340"/>
      <polygon points="469.98 253.309 477.44 253.309 484.9 253.309 484.9 246.273 484.9 239.236 477.44 239.236 469.98 239.236 462.52 239.236 455.06 239.236 455.06 246.273 455.06 253.309 462.52 253.309 469.98 253.309" fill="#082340"/>
      <polygon points="574.42 239.236 566.96 239.236 566.96 232.2 566.96 225.164 559.5 225.164 552.04 225.164 552.04 232.2 552.04 239.236 552.04 246.273 552.04 253.309 559.5 253.309 566.96 253.309 574.42 253.309 574.42 246.273 574.42 239.236" fill="#082340"/>
      <polygon points="492.36 232.2 492.36 225.164 484.9 225.164 484.9 232.2 484.9 239.236 492.36 239.236 492.36 232.2" fill="#082340"/>
      <polygon points="417.76 225.164 410.3 225.164 410.3 232.2 410.3 239.236 417.76 239.236 417.76 232.2 417.76 225.164" fill="#082340"/>
      <polygon points="201.42 218.127 201.42 211.091 193.96 211.091 193.96 218.127 193.96 225.164 201.42 225.164 201.42 218.127" fill="#082340"/>
      <polygon points="335.7 218.127 335.7 225.164 343.16 225.164 350.62 225.164 350.62 218.127 350.62 211.091 358.08 211.091 358.08 204.055 358.08 197.018 350.62 197.018 343.16 197.018 335.7 197.018 328.24 197.018 328.24 204.055 328.24 211.091 335.7 211.091 335.7 218.127" fill="#082340"/>
      <polygon points="432.68 211.091 432.68 204.055 432.68 197.018 425.22 197.018 417.76 197.018 417.76 204.055 417.76 211.091 425.22 211.091 432.68 211.091" fill="#082340"/>
    </g>
    <g>
      <polygon points="111.9 260.345 111.9 267.382 119.36 267.382 119.36 260.345 119.36 253.309 111.9 253.309 111.9 260.345" fill="#0e3b6a"/>
      <polygon points="111.9 239.236 104.44 239.236 96.98 239.236 96.98 246.273 96.98 253.309 104.44 253.309 111.9 253.309 111.9 246.273 111.9 239.236" fill="#0e3b6a"/>
      <polygon points="96.98 225.164 89.52 225.164 82.06 225.164 82.06 218.127 82.06 211.091 74.6 211.091 74.6 218.127 74.6 225.164 67.14 225.164 59.68 225.164 59.68 232.2 59.68 239.236 67.14 239.236 74.6 239.236 74.6 246.273 74.6 253.309 82.06 253.309 82.06 246.273 82.06 239.236 89.52 239.236 96.98 239.236 96.98 232.2 96.98 225.164" fill="#0e3b6a"/>
      <polygon points="111.9 225.164 111.9 218.127 111.9 211.091 104.44 211.091 96.98 211.091 96.98 218.127 96.98 225.164 104.44 225.164 111.9 225.164" fill="#0e3b6a"/>
      <polygon points="238.72 189.982 238.72 197.018 246.18 197.018 253.64 197.018 253.64 189.982 253.64 182.945 253.64 175.909 246.18 175.909 238.72 175.909 238.72 182.945 238.72 189.982" fill="#0e3b6a"/>
      <polygon points="522.2 175.909 514.74 175.909 507.28 175.909 499.82 175.909 492.36 175.909 484.9 175.909 477.44 175.909 469.98 175.909 462.52 175.909 455.06 175.909 455.06 168.873 455.06 161.836 447.6 161.836 447.6 154.8 447.6 147.764 455.06 147.764 455.06 140.727 455.06 133.691 462.52 133.691 469.98 133.691 477.44 133.691 484.9 133.691 492.36 133.691 499.82 133.691 507.28 133.691 507.28 126.655 507.28 119.618 507.28 112.582 507.28 105.545 514.74 105.545 514.74 98.509 514.74 91.473 514.74 84.436 514.74 77.4 507.28 77.4 507.28 70.364 507.28 63.327 507.28 56.291 499.82 56.291 492.36 56.291 492.36 63.327 492.36 70.364 492.36 77.4 492.36 84.436 492.36 91.473 484.9 91.473 484.9 98.509 484.9 105.545 477.44 105.545 469.98 105.545 462.52 105.545 455.06 105.545 455.06 112.582 455.06 119.618 447.6 119.618 440.14 119.618 432.68 119.618 425.22 119.618 417.76 119.618 417.76 126.655 417.76 133.691 410.3 133.691 410.3 140.727 410.3 147.764 402.84 147.764 395.38 147.764 395.38 154.8 395.38 161.836 387.92 161.836 387.92 168.873 387.92 175.909 395.38 175.909 402.84 175.909 410.3 175.909 417.76 175.909 417.76 182.945 417.76 189.982 417.76 197.018 425.22 197.018 432.68 197.018 440.14 197.018 447.6 197.018 455.06 197.018 462.52 197.018 469.98 197.018 477.44 197.018 484.9 197.018 484.9 204.055 484.9 211.091 492.36 211.091 492.36 218.127 492.36 225.164 499.82 225.164 507.28 225.164 507.28 218.127 507.28 211.091 507.28 204.055 507.28 197.018 514.74 197.018 522.2 197.018 529.66 197.018 529.66 189.982 529.66 182.945 529.66 175.909 522.2 175.909" fill="#0e3b6a"/>
      <polygon points="231.26 168.873 231.26 175.909 238.72 175.909 238.72 168.873 238.72 161.836 231.26 161.836 231.26 168.873" fill="#0e3b6a"/>
      <polygon points="238.72 147.764 238.72 154.8 238.72 161.836 246.18 161.836 253.64 161.836 253.64 154.8 253.64 147.764 246.18 147.764 238.72 147.764" fill="#0e3b6a"/>
    </g>
    <g>
      <polygon points="731.08 387 738.54 387 746 387 746 379.964 746 372.927 738.54 372.927 731.08 372.927 731.08 379.964 731.08 387" fill="#10477f"/>
      <polygon points="104.44 372.927 96.98 372.927 89.52 372.927 82.06 372.927 82.06 379.964 82.06 387 89.52 387 96.98 387 104.44 387 111.9 387 119.36 387 119.36 379.964 119.36 372.927 111.9 372.927 104.44 372.927" fill="#10477f"/>
      <polygon points="723.62 365.891 723.62 372.927 731.08 372.927 731.08 365.891 731.08 358.855 723.62 358.855 723.62 365.891" fill="#10477f"/>
      <polygon points="544.58 365.891 544.58 372.927 552.04 372.927 552.04 365.891 552.04 358.855 544.58 358.855 544.58 365.891" fill="#10477f"/>
      <polygon points="82.06 351.818 82.06 344.782 74.6 344.782 74.6 337.745 74.6 330.709 67.14 330.709 59.68 330.709 59.68 323.673 59.68 316.636 59.68 309.6 52.22 309.6 44.76 309.6 44.76 302.564 44.76 295.527 37.3 295.527 29.84 295.527 22.38 295.527 22.38 302.564 22.38 309.6 22.38 316.636 22.38 323.673 22.38 330.709 29.84 330.709 37.3 330.709 44.76 330.709 44.76 337.745 44.76 344.782 37.3 344.782 37.3 351.818 37.3 358.855 44.76 358.855 52.22 358.855 59.68 358.855 67.14 358.855 74.6 358.855 82.06 358.855 82.06 351.818" fill="#10477f"/>
      <polygon points="723.62 344.782 716.16 344.782 708.7 344.782 708.7 351.818 708.7 358.855 716.16 358.855 723.62 358.855 723.62 351.818 723.62 344.782" fill="#10477f"/>
      <polygon points="649.02 344.782 649.02 351.818 649.02 358.855 656.48 358.855 663.94 358.855 663.94 351.818 663.94 344.782 656.48 344.782 649.02 344.782" fill="#10477f"/>
      <polygon points="440.14 344.782 432.68 344.782 432.68 337.745 432.68 330.709 432.68 323.673 432.68 316.636 432.68 309.6 425.22 309.6 417.76 309.6 417.76 316.636 417.76 323.673 417.76 330.709 410.3 330.709 410.3 337.745 410.3 344.782 417.76 344.782 417.76 351.818 417.76 358.855 425.22 358.855 432.68 358.855 440.14 358.855 447.6 358.855 455.06 358.855 455.06 351.818 455.06 344.782 447.6 344.782 440.14 344.782" fill="#10477f"/>
      <polygon points="373 344.782 365.54 344.782 358.08 344.782 358.08 351.818 358.08 358.855 365.54 358.855 373 358.855 380.46 358.855 387.92 358.855 387.92 351.818 387.92 344.782 380.46 344.782 373 344.782" fill="#10477f"/>
      <polygon points="328.24 344.782 335.7 344.782 343.16 344.782 350.62 344.782 350.62 337.745 350.62 330.709 343.16 330.709 335.7 330.709 328.24 330.709 328.24 337.745 328.24 344.782" fill="#10477f"/>
      <polygon points="671.4 330.709 663.94 330.709 663.94 337.745 663.94 344.782 671.4 344.782 678.86 344.782 686.32 344.782 686.32 337.745 686.32 330.709 678.86 330.709 671.4 330.709" fill="#10477f"/>
      <polygon points="387.92 337.745 387.92 344.782 395.38 344.782 395.38 337.745 395.38 330.709 387.92 330.709 387.92 337.745" fill="#10477f"/>
      <polygon points="313.32 330.709 320.78 330.709 328.24 330.709 328.24 323.673 328.24 316.636 328.24 309.6 320.78 309.6 313.32 309.6 305.86 309.6 298.4 309.6 298.4 316.636 298.4 323.673 298.4 330.709 305.86 330.709 313.32 330.709" fill="#10477f"/>
      <polygon points="663.94 316.636 663.94 309.6 656.48 309.6 649.02 309.6 649.02 302.564 649.02 295.527 641.56 295.527 634.1 295.527 626.64 295.527 626.64 302.564 626.64 309.6 634.1 309.6 641.56 309.6 641.56 316.636 641.56 323.673 641.56 330.709 649.02 330.709 656.48 330.709 663.94 330.709 663.94 323.673 663.94 316.636" fill="#10477f"/>
      <polygon points="261.1 309.6 253.64 309.6 246.18 309.6 238.72 309.6 231.26 309.6 231.26 316.636 231.26 323.673 231.26 330.709 238.72 330.709 246.18 330.709 253.64 330.709 253.64 337.745 253.64 344.782 261.1 344.782 268.56 344.782 276.02 344.782 283.48 344.782 290.94 344.782 290.94 351.818 290.94 358.855 298.4 358.855 298.4 351.818 298.4 344.782 298.4 337.745 298.4 330.709 290.94 330.709 283.48 330.709 276.02 330.709 276.02 323.673 276.02 316.636 276.02 309.6 268.56 309.6 261.1 309.6" fill="#10477f"/>
      <polygon points="193.96 316.636 193.96 323.673 193.96 330.709 201.42 330.709 201.42 323.673 201.42 316.636 201.42 309.6 193.96 309.6 193.96 316.636" fill="#10477f"/>
      <polygon points="276.02 309.6 283.48 309.6 290.94 309.6 290.94 302.564 290.94 295.527 283.48 295.527 276.02 295.527 276.02 302.564 276.02 309.6" fill="#10477f"/>
      <polygon points="82.06 302.564 82.06 295.527 74.6 295.527 74.6 302.564 74.6 309.6 82.06 309.6 82.06 302.564" fill="#10477f"/>
      <polygon points="455.06 295.527 447.6 295.527 447.6 302.564 447.6 309.6 455.06 309.6 455.06 302.564 455.06 295.527" fill="#10477f"/>
      <polygon points="335.7 295.527 335.7 302.564 335.7 309.6 343.16 309.6 350.62 309.6 350.62 302.564 350.62 295.527 343.16 295.527 335.7 295.527" fill="#10477f"/>
      <polygon points="395.38 295.527 387.92 295.527 387.92 302.564 387.92 309.6 395.38 309.6 402.84 309.6 410.3 309.6 410.3 302.564 410.3 295.527 410.3 288.491 410.3 281.455 402.84 281.455 395.38 281.455 395.38 288.491 395.38 295.527" fill="#10477f"/>
      <polygon points="447.6 281.455 440.14 281.455 432.68 281.455 432.68 288.491 432.68 295.527 440.14 295.527 447.6 295.527 447.6 288.491 447.6 281.455" fill="#10477f"/>
      <polygon points="111.9 253.309 104.44 253.309 96.98 253.309 96.98 260.345 96.98 267.382 104.44 267.382 111.9 267.382 111.9 260.345 111.9 253.309" fill="#10477f"/>
      <polygon points="96.98 239.236 89.52 239.236 82.06 239.236 82.06 246.273 82.06 253.309 89.52 253.309 96.98 253.309 96.98 246.273 96.98 239.236" fill="#10477f"/>
      <polygon points="0 239.236 0 246.273 0 253.309 0 260.345 0 267.382 7.46 267.382 14.92 267.382 14.92 260.345 14.92 253.309 14.92 246.273 14.92 239.236 7.46 239.236 0 239.236" fill="#10477f"/>
      <polygon points="29.84 211.091 22.38 211.091 22.38 218.127 22.38 225.164 14.92 225.164 14.92 232.2 14.92 239.236 22.38 239.236 22.38 246.273 22.38 253.309 29.84 253.309 37.3 253.309 37.3 246.273 37.3 239.236 37.3 232.2 37.3 225.164 44.76 225.164 44.76 218.127 44.76 211.091 37.3 211.091 29.84 211.091" fill="#10477f"/>
      <polygon points="44.76 197.018 44.76 204.055 44.76 211.091 52.22 211.091 59.68 211.091 59.68 204.055 59.68 197.018 52.22 197.018 44.76 197.018" fill="#10477f"/>
      <polygon points="82.06 182.945 82.06 175.909 82.06 168.873 82.06 161.836 74.6 161.836 74.6 168.873 74.6 175.909 67.14 175.909 59.68 175.909 59.68 182.945 59.68 189.982 59.68 197.018 67.14 197.018 74.6 197.018 82.06 197.018 82.06 189.982 82.06 182.945" fill="#10477f"/>
      <path d="M686.32,682.3455v-7.0364h14.92v14.0727H686.32Zm-484.9-35.1819h-7.46V633.0909h7.46v14.0727Zm305.86,63.3273v7.0364H492.36V703.4545h14.92Zm0-28.1454v7.0363H492.36V675.3091h14.92ZM671.4,710.4909v-7.0364h14.92v14.0728H671.4Z" transform="translate(0 -422)" fill="#10477f"/>
      <polygon points="514.74 358.85 514.74 351.82 514.74 344.78 507.28 344.78 499.82 344.78 492.36 344.78 492.36 351.82 492.36 358.85 499.82 358.85 507.28 358.85 507.28 365.89 507.28 372.93 499.82 372.93 492.36 372.93 484.9 372.93 477.44 372.93 469.98 372.93 469.98 365.89 469.98 358.85 469.98 351.82 469.98 344.78 462.52 344.78 455.06 344.78 455.06 337.75 455.06 330.71 455.06 323.67 455.06 316.64 455.06 309.6 462.52 309.6 469.98 309.6 477.44 309.6 484.9 309.6 484.9 316.64 484.9 323.67 484.9 330.71 492.36 330.71 499.82 330.71 507.28 330.71 514.74 330.71 514.74 323.67 514.74 316.64 514.74 309.6 507.28 309.6 499.82 309.6 492.36 309.6 484.9 309.6 484.9 302.56 484.9 295.53 477.44 295.53 469.98 295.53 469.98 288.49 469.98 281.45 469.98 274.42 469.98 267.38 462.52 267.38 455.06 267.38 455.06 274.42 455.06 281.45 447.6 281.45 447.6 274.42 447.6 267.38 440.14 267.38 432.68 267.38 432.68 260.35 432.68 253.31 432.68 246.27 432.68 239.24 425.22 239.24 417.76 239.24 417.76 232.2 417.76 225.16 410.3 225.16 410.3 232.2 410.3 239.24 417.76 239.24 417.76 246.27 417.76 253.31 417.76 260.35 417.76 267.38 410.3 267.38 402.84 267.38 395.38 267.38 395.38 274.42 395.38 281.45 387.92 281.45 387.92 288.49 387.92 295.53 380.46 295.53 373 295.53 373 302.56 373 309.6 365.54 309.6 358.08 309.6 358.08 302.56 358.08 295.53 350.62 295.53 350.62 288.49 350.62 281.45 343.16 281.45 335.7 281.45 335.7 288.49 335.7 295.53 328.24 295.53 320.78 295.53 313.32 295.53 305.86 295.53 298.4 295.53 298.4 288.49 298.4 281.45 290.94 281.45 290.94 274.42 290.94 267.38 290.94 260.35 290.94 253.31 298.4 253.31 298.4 246.27 298.4 239.24 305.86 239.24 313.32 239.24 320.78 239.24 328.24 239.24 328.24 232.2 328.24 225.16 328.24 218.13 328.24 211.09 335.7 211.09 335.7 218.13 335.7 225.16 343.16 225.16 350.62 225.16 350.62 218.13 350.62 211.09 358.08 211.09 358.08 204.05 358.08 197.02 350.62 197.02 343.16 197.02 335.7 197.02 328.24 197.02 328.24 204.05 328.24 211.09 320.78 211.09 313.32 211.09 305.86 211.09 298.4 211.09 298.4 218.13 298.4 225.16 290.94 225.16 290.94 232.2 290.94 239.24 283.48 239.24 276.02 239.24 268.56 239.24 268.56 232.2 268.56 225.16 261.1 225.16 253.64 225.16 246.18 225.16 238.72 225.16 231.26 225.16 223.8 225.16 216.34 225.16 216.34 232.2 216.34 239.24 223.8 239.24 231.26 239.24 238.72 239.24 238.72 246.27 238.72 253.31 246.18 253.31 253.64 253.31 253.64 260.35 253.64 267.38 261.1 267.38 268.56 267.38 276.02 267.38 276.02 274.42 276.02 281.45 276.02 288.49 276.02 295.53 268.56 295.53 261.1 295.53 253.64 295.53 246.18 295.53 238.72 295.53 231.26 295.53 231.26 302.56 231.26 309.6 223.8 309.6 216.34 309.6 208.88 309.6 201.42 309.6 201.42 302.56 201.42 295.53 201.42 288.49 201.42 281.45 208.88 281.45 216.34 281.45 216.34 274.42 216.34 267.38 208.88 267.38 201.42 267.38 201.42 274.42 201.42 281.45 193.96 281.45 193.96 274.42 193.96 267.38 186.5 267.38 179.04 267.38 179.04 274.42 179.04 281.45 179.04 288.49 179.04 295.53 179.04 302.56 179.04 309.6 171.58 309.6 171.58 302.56 171.58 295.53 164.12 295.53 156.66 295.53 149.2 295.53 141.74 295.53 141.74 302.56 141.74 309.6 149.2 309.6 156.66 309.6 156.66 316.64 156.66 323.67 156.66 330.71 164.12 330.71 171.58 330.71 179.04 330.71 179.04 337.75 179.04 344.78 186.5 344.78 193.96 344.78 193.96 351.82 193.96 358.85 201.42 358.85 201.42 365.89 201.42 372.93 193.96 372.93 186.5 372.93 179.04 372.93 171.58 372.93 164.12 372.93 156.66 372.93 156.66 365.89 156.66 358.85 149.2 358.85 141.74 358.85 134.28 358.85 134.28 351.82 134.28 344.78 126.82 344.78 119.36 344.78 119.36 337.75 119.36 330.71 111.9 330.71 111.9 323.67 111.9 316.64 111.9 309.6 111.9 302.56 111.9 295.53 119.36 295.53 119.36 288.49 119.36 281.45 111.9 281.45 111.9 274.42 111.9 267.38 119.36 267.38 119.36 260.35 119.36 253.31 111.9 253.31 111.9 246.27 111.9 239.24 104.44 239.24 96.98 239.24 96.98 232.2 96.98 225.16 104.44 225.16 111.9 225.16 111.9 218.13 111.9 211.09 104.44 211.09 96.98 211.09 96.98 218.13 96.98 225.16 89.52 225.16 82.06 225.16 82.06 218.13 82.06 211.09 82.06 204.05 82.06 197.02 89.52 197.02 96.98 197.02 104.44 197.02 111.9 197.02 119.36 197.02 126.82 197.02 134.28 197.02 134.28 204.05 134.28 211.09 141.74 211.09 149.2 211.09 156.66 211.09 156.66 218.13 156.66 225.16 164.12 225.16 171.58 225.16 179.04 225.16 179.04 218.13 179.04 211.09 171.58 211.09 171.58 204.05 171.58 197.02 179.04 197.02 179.04 189.98 179.04 182.95 179.04 175.91 186.5 175.91 193.96 175.91 193.96 168.87 193.96 161.84 201.42 161.84 201.42 154.8 201.42 147.76 208.88 147.76 216.34 147.76 216.34 140.73 216.34 133.69 223.8 133.69 231.26 133.69 231.26 140.73 231.26 147.76 231.26 154.8 231.26 161.84 231.26 168.87 231.26 175.91 238.72 175.91 238.72 182.95 238.72 189.98 238.72 197.02 238.72 204.05 238.72 211.09 246.18 211.09 253.64 211.09 253.64 204.05 253.64 197.02 261.1 197.02 268.56 197.02 276.02 197.02 283.48 197.02 290.94 197.02 298.4 197.02 298.4 189.98 298.4 182.95 298.4 175.91 305.86 175.91 313.32 175.91 320.78 175.91 328.24 175.91 335.7 175.91 343.16 175.91 350.62 175.91 358.08 175.91 358.08 168.87 358.08 161.84 365.54 161.84 373 161.84 373 154.8 373 147.76 380.46 147.76 387.92 147.76 395.38 147.76 395.38 154.8 395.38 161.84 387.92 161.84 387.92 168.87 387.92 175.91 395.38 175.91 402.84 175.91 410.3 175.91 417.76 175.91 417.76 182.95 417.76 189.98 417.76 197.02 417.76 204.05 417.76 211.09 425.22 211.09 432.68 211.09 432.68 204.05 432.68 197.02 440.14 197.02 447.6 197.02 455.06 197.02 462.52 197.02 469.98 197.02 477.44 197.02 484.9 197.02 484.9 204.05 484.9 211.09 492.36 211.09 492.36 218.13 492.36 225.16 484.9 225.16 484.9 232.2 484.9 239.24 477.44 239.24 469.98 239.24 462.52 239.24 455.06 239.24 455.06 246.27 455.06 253.31 462.52 253.31 469.98 253.31 477.44 253.31 484.9 253.31 484.9 246.27 484.9 239.24 492.36 239.24 492.36 232.2 492.36 225.16 499.82 225.16 507.28 225.16 507.28 218.13 507.28 211.09 507.28 204.05 507.28 197.02 514.74 197.02 522.2 197.02 529.66 197.02 529.66 189.98 529.66 182.95 529.66 175.91 522.2 175.91 514.74 175.91 507.28 175.91 499.82 175.91 492.36 175.91 484.9 175.91 477.44 175.91 469.98 175.91 462.52 175.91 455.06 175.91 455.06 168.87 455.06 161.84 447.6 161.84 447.6 154.8 447.6 147.76 455.06 147.76 455.06 140.73 455.06 133.69 462.52 133.69 469.98 133.69 477.44 133.69 484.9 133.69 492.36 133.69 499.82 133.69 507.28 133.69 507.28 126.65 507.28 119.62 507.28 112.58 507.28 105.55 514.74 105.55 514.74 98.51 514.74 91.47 522.2 91.47 529.66 91.47 529.66 98.51 529.66 105.55 529.66 112.58 529.66 119.62 537.12 119.62 544.58 119.62 552.04 119.62 559.5 119.62 566.96 119.62 574.42 119.62 574.42 126.65 574.42 133.69 566.96 133.69 566.96 140.73 566.96 147.76 566.96 154.8 566.96 161.84 574.42 161.84 581.88 161.84 589.34 161.84 589.34 168.87 589.34 175.91 596.8 175.91 604.26 175.91 611.72 175.91 619.18 175.91 626.64 175.91 626.64 168.87 626.64 161.84 619.18 161.84 611.72 161.84 611.72 154.8 611.72 147.76 604.26 147.76 596.8 147.76 589.34 147.76 589.34 140.73 589.34 133.69 596.8 133.69 604.26 133.69 611.72 133.69 619.18 133.69 626.64 133.69 626.64 140.73 626.64 147.76 634.1 147.76 641.56 147.76 641.56 154.8 641.56 161.84 649.02 161.84 656.48 161.84 663.94 161.84 671.4 161.84 671.4 168.87 671.4 175.91 678.86 175.91 686.32 175.91 686.32 168.87 686.32 161.84 693.78 161.84 701.24 161.84 701.24 168.87 701.24 175.91 708.7 175.91 716.16 175.91 723.62 175.91 731.08 175.91 738.54 175.91 738.5 182.95 746 183.5 746 197.02 746 204.05 746 211.09 746 218.13 746 225.16 746 232.2 746 239.24 746 246.27 746 253.31 746 260.35 746 267.38 746 274.42 746 281.45 746 288.49 746 295.53 746 302.56 746 309.6 738.54 309.6 731.08 309.6 731.08 316.64 731.08 323.67 731.08 330.71 738.54 330.71 746 330.71 746 337.75 746 344.78 746 351.82 746 358.85 738.54 358.85 731.08 358.85 731.08 351.82 731.08 344.78 723.62 344.78 723.62 337.75 723.62 330.71 716.16 330.71 708.7 330.71 708.7 323.67 708.7 316.64 708.7 309.6 701.24 309.6 701.24 316.64 701.24 323.67 701.24 330.71 693.78 330.71 686.32 330.71 686.32 323.67 686.32 316.64 686.32 309.6 678.86 309.6 671.4 309.6 663.94 309.6 663.94 302.56 663.94 295.53 663.94 288.49 663.94 281.45 656.48 281.45 649.02 281.45 649.02 274.42 649.02 267.38 641.56 267.38 641.56 274.42 641.56 281.45 634.1 281.45 626.64 281.45 619.18 281.45 611.72 281.45 611.72 274.42 611.72 267.38 619.18 267.38 626.64 267.38 626.64 260.35 626.64 253.31 619.18 253.31 611.72 253.31 611.72 260.35 611.72 267.38 604.26 267.38 604.26 260.35 604.26 253.31 596.8 253.31 589.34 253.31 581.88 253.31 574.42 253.31 574.42 246.27 574.42 239.24 566.96 239.24 566.96 232.2 566.96 225.16 559.5 225.16 552.04 225.16 552.04 232.2 552.04 239.24 552.04 246.27 552.04 253.31 544.58 253.31 537.12 253.31 529.66 253.31 522.2 253.31 514.74 253.31 514.74 260.35 514.74 267.38 522.2 267.38 529.66 267.38 537.12 267.38 544.58 267.38 552.04 267.38 552.04 260.35 552.04 253.31 559.5 253.31 566.96 253.31 574.42 253.31 574.42 260.35 574.42 267.38 566.96 267.38 566.96 274.42 566.96 281.45 574.42 281.45 574.42 274.42 574.42 267.38 581.88 267.38 589.34 267.38 589.34 274.42 589.34 281.45 589.34 288.49 589.34 295.53 596.8 295.53 604.26 295.53 611.72 295.53 611.72 302.56 611.72 309.6 619.18 309.6 626.64 309.6 626.64 316.64 626.64 323.67 626.64 330.71 634.1 330.71 641.56 330.71 641.56 337.75 641.56 344.78 634.1 344.78 626.64 344.78 619.18 344.78 611.72 344.78 604.26 344.78 604.26 337.75 604.26 330.71 596.8 330.71 589.34 330.71 589.34 337.75 589.34 344.78 581.88 344.78 574.42 344.78 574.42 337.75 574.42 330.71 566.96 330.71 566.96 323.67 566.96 316.64 566.96 309.6 559.5 309.6 552.04 309.6 552.04 302.56 552.04 295.53 544.58 295.53 544.58 288.49 544.58 281.45 537.12 281.45 529.66 281.45 522.2 281.45 514.74 281.45 514.74 288.49 514.74 295.53 522.2 295.53 529.66 295.53 529.66 302.56 529.66 309.6 529.66 316.64 529.66 323.67 529.66 330.71 537.12 330.71 544.58 330.71 544.58 337.75 544.58 344.78 537.12 344.78 529.66 344.78 529.66 351.82 529.66 358.85 522.2 358.85 514.74 358.85" fill="#10477f"/>
      <polygon points="119.36 168.873 119.36 161.836 111.9 161.836 111.9 168.873 111.9 175.909 119.36 175.909 119.36 168.873" fill="#10477f"/>
      <polygon points="302.16 358.836 309.62 358.836 309.62 351.8 309.62 344.764 302.16 344.764 294.7 344.764 287.24 344.764 287.24 351.8 287.24 358.836 294.7 358.836 302.16 358.836" fill="#10477f"/>
      <polygon points="96.98 161.836 96.98 154.8 96.98 147.764 89.52 147.764 82.06 147.764 82.06 154.8 82.06 161.836 89.52 161.836 96.98 161.836" fill="#10477f"/>
      <polygon points="410.3 147.764 410.3 140.727 410.3 133.691 402.84 133.691 395.38 133.691 395.38 140.727 395.38 147.764 402.84 147.764 410.3 147.764" fill="#10477f"/>
      <polygon points="238.72 126.655 238.72 119.618 231.26 119.618 231.26 126.655 231.26 133.691 238.72 133.691 238.72 126.655" fill="#10477f"/>
      <polygon points="447.6 119.618 455.06 119.618 455.06 112.582 455.06 105.545 462.52 105.545 469.98 105.545 477.44 105.545 484.9 105.545 484.9 98.509 484.9 91.473 484.9 84.436 484.9 77.4 477.44 77.4 469.98 77.4 469.98 84.436 469.98 91.473 462.52 91.473 455.06 91.473 447.6 91.473 447.6 98.509 447.6 105.545 440.14 105.545 432.68 105.545 432.68 112.582 432.68 119.618 440.14 119.618 447.6 119.618" fill="#10477f"/>
      <polygon points="253.64 119.618 261.1 119.618 268.56 119.618 268.56 112.582 268.56 105.545 268.56 98.509 268.56 91.473 261.1 91.473 253.64 91.473 253.64 98.509 253.64 105.545 246.18 105.545 238.72 105.545 238.72 112.582 238.72 119.618 246.18 119.618 253.64 119.618" fill="#10477f"/>
      <polygon points="552.04 98.509 552.04 105.545 559.5 105.545 566.96 105.545 566.96 98.509 566.96 91.473 559.5 91.473 552.04 91.473 552.04 98.509" fill="#10477f"/>
      <polygon points="492.36 70.364 492.36 63.327 492.36 56.291 484.9 56.291 484.9 63.327 484.9 70.364 484.9 77.4 492.36 77.4 492.36 70.364" fill="#10477f"/>
      <polygon points="514.74 63.327 514.74 70.364 514.74 77.4 522.2 77.4 529.66 77.4 529.66 70.364 529.66 63.327 529.66 56.291 522.2 56.291 514.74 56.291 514.74 63.327" fill="#10477f"/>
      <polygon points="507.28 56.291 507.28 49.255 507.28 42.218 514.74 42.218 514.74 35.182 514.74 28.145 514.74 21.109 514.74 14.073 507.28 14.073 507.28 21.109 507.28 28.145 499.82 28.145 492.36 28.145 492.36 35.182 492.36 42.218 492.36 49.255 492.36 56.291 499.82 56.291 507.28 56.291" fill="#10477f"/>
      <polygon points="552.04 35.182 552.04 28.145 544.58 28.145 544.58 35.182 544.58 42.218 552.04 42.218 552.04 35.182" fill="#10477f"/>
    </g>
    <g>
      <path d="M171.58,626.0545v-7.0363H156.66V597.9091H141.74V583.8364h-7.46V569.7636H119.36V555.6909H96.98v28.1455H82.06v35.1818h52.22v14.0727h22.38v14.0727h22.38V633.0909h-7.46ZM111.9,583.8364h7.46v14.0727H111.9V583.8364Z" transform="translate(0 -422)" fill="#5f9fe1"/>
      <polygon points="238.72 197.018 238.72 204.055 238.72 211.091 246.18 211.091 253.64 211.091 253.64 204.055 253.64 197.018 246.18 197.018 238.72 197.018" fill="#5f9fe1"/>
      <polygon points="701.24 161.836 701.24 168.873 701.24 175.909 708.7 175.909 708.7 168.873 708.7 161.836 701.24 161.836" fill="#5f9fe1"/>
      <polygon points="343.16 161.836 335.7 161.836 328.24 161.836 328.24 154.8 328.24 147.764 320.78 147.764 313.32 147.764 313.32 140.727 313.32 133.691 305.86 133.691 298.4 133.691 290.94 133.691 290.94 126.655 290.94 119.618 283.48 119.618 276.02 119.618 276.02 112.582 276.02 105.545 268.56 105.545 268.56 112.582 268.56 119.618 261.1 119.618 253.64 119.618 246.18 119.618 238.72 119.618 238.72 126.655 238.72 133.691 231.26 133.691 231.26 140.727 231.26 147.764 231.26 154.8 231.26 161.836 238.72 161.836 238.72 154.8 238.72 147.764 246.18 147.764 253.64 147.764 253.64 154.8 253.64 161.836 246.18 161.836 238.72 161.836 238.72 168.873 238.72 175.909 246.18 175.909 253.64 175.909 253.64 182.945 253.64 189.982 253.64 197.018 261.1 197.018 268.56 197.018 276.02 197.018 283.48 197.018 290.94 197.018 298.4 197.018 298.4 189.982 298.4 182.945 298.4 175.909 305.86 175.909 313.32 175.909 320.78 175.909 328.24 175.909 335.7 175.909 343.16 175.909 350.62 175.909 358.08 175.909 358.08 168.873 358.08 161.836 350.62 161.836 343.16 161.836" fill="#5f9fe1"/>
      <path d="M671.4,569.7636h-7.46V555.6909H641.56V541.6182H626.64V527.5454H611.72V513.4727h-7.46V499.4H574.42V478.2909h-7.46V464.2181H544.58V436.0727H529.66V422H514.74v42.2181h-7.46V499.4h7.46V478.2909h14.92V499.4H514.74v14.0727h14.92v28.1455h44.76v14.0727h-7.46v28.1455h22.38v14.0727h37.3V583.8364H611.72V569.7636H589.34V555.6909h37.3v14.0727h14.92v14.0728H671.4v14.0727h14.92V569.7636H671.4ZM552.04,520.5091v-7.0364h14.92v14.0727H552.04Z" transform="translate(0 -422)" fill="#5f9fe1"/>
      <polygon points="484.9 91.473 492.36 91.473 492.36 84.436 492.36 77.4 484.9 77.4 484.9 84.436 484.9 91.473" fill="#5f9fe1"/>
      <polygon points="455.06 77.4 455.06 84.436 455.06 91.473 462.52 91.473 469.98 91.473 469.98 84.436 469.98 77.4 462.52 77.4 455.06 77.4" fill="#5f9fe1"/>
      <polygon points="469.98 56.291 469.98 63.327 469.98 70.364 469.98 77.4 477.44 77.4 484.9 77.4 484.9 70.364 484.9 63.327 484.9 56.291 477.44 56.291 469.98 56.291" fill="#5f9fe1"/>
      <polygon points="484.9 49.255 484.9 56.291 492.36 56.291 492.36 49.255 492.36 42.218 484.9 42.218 484.9 49.255" fill="#5f9fe1"/>
    </g>
  </g>
</svg>
